<svg width="321" height="596" viewBox="0 0 321 596" fill="none" xmlns="http://www.w3.org/2000/svg">
<path d="M6.40375 595.838L25.8383 589.596L19.5962 570.162L0.161665 576.404L6.40375 595.838ZM313.38 2.23553C312.958 0.920961 311.55 0.197568 310.236 0.619788L288.813 7.50025C287.499 7.92247 286.775 9.33042 287.198 10.645C287.62 11.9596 289.028 12.683 290.342 12.2607L309.384 6.14477L315.5 25.1867C315.922 26.5013 317.33 27.2247 318.645 26.8024C319.96 26.3802 320.683 24.9723 320.261 23.6577L313.38 2.23553ZM15.2237 584.143L313.224 4.14253L308.776 1.85752L10.7763 581.857L15.2237 584.143Z" fill="#C9753D"/>
</svg>
