<svg width="57" height="44" viewBox="0 0 57 44" fill="none" xmlns="http://www.w3.org/2000/svg">
<path d="M36.9276 5.62894C41.6796 7.10794 48.2796 6.67294 52.0746 8.84794C55.8696 11.0519 56.8596 15.8659 56.8596 20.6799C56.8596 25.4939 55.8696 30.3079 52.2726 32.7729C48.6756 35.2669 42.4386 35.4119 37.6866 37.3259C32.9346 39.2399 29.7006 42.9519 26.0046 43.6189C22.3086 44.2569 18.1836 41.8789 15.2136 39.0659C12.2436 36.2529 10.3956 33.0049 7.88759 29.8729C5.37959 26.7409 2.24459 23.6959 0.825589 19.9549C-0.593412 16.2139 -0.263411 11.7479 2.44259 8.90594C5.11559 6.06394 10.1646 4.84594 14.5536 3.19294C18.9756 1.53994 22.7046 -0.519063 26.0046 0.118937C29.3046 0.785937 32.2086 4.14994 36.9276 5.62894Z" fill="#EDC98D"/>
</svg>
