<?xml version="1.0" standalone="no"?>
<svg viewBox="0 0 200 200" xmlns="http://www.w3.org/2000/svg">
  <path fill="#EDC98D" d="M31.8,-51.9C46.2,-46.8,66.2,-48.3,77.7,-40.8C89.2,-33.2,92.2,-16.6,92.2,0C92.2,16.6,89.2,33.2,78.3,41.7C67.4,50.3,48.5,50.8,34.1,57.4C19.7,64,9.9,76.8,-1.3,79.1C-12.5,81.3,-25,73.1,-34,63.4C-43,53.7,-48.6,42.5,-56.2,31.7C-63.8,20.9,-73.3,10.4,-77.6,-2.5C-81.9,-15.4,-80.9,-30.8,-72.7,-40.6C-64.6,-50.4,-49.3,-54.6,-36,-60.3C-22.6,-66,-11.3,-73.1,-1.3,-70.9C8.7,-68.6,17.5,-57,31.8,-51.9Z" transform="translate(100 100)" />
</svg>
