<svg width="274" height="246" viewBox="0 0 274 246" fill="none" xmlns="http://www.w3.org/2000/svg">
<path d="M251.496 235.267C252.609 235.809 254.278 235.809 255.39 235.809C258.728 235.809 262.065 234.725 264.846 233.098C268.74 230.388 271.521 226.592 272.634 222.255C273.746 217.917 272.634 213.038 270.409 209.242C267.628 205.447 263.734 202.736 259.284 201.652C249.828 199.483 239.815 205.447 237.59 214.664C236.478 219.002 237.59 223.881 239.815 227.677C243.153 231.472 247.046 234.183 251.496 235.267ZM249.828 216.833C250.384 213.58 253.721 211.953 256.503 212.495C258.171 213.038 259.284 213.58 259.84 215.206C260.396 216.291 260.952 217.917 260.396 219.544C259.84 221.17 259.284 222.255 257.615 222.797C256.502 223.339 254.834 223.881 253.165 223.339C251.496 222.797 250.384 222.255 249.828 220.628C249.828 219.544 249.828 218.459 249.828 216.833Z" fill="#C9753D"/>
<path d="M20.6524 217.375L16.7586 219.544L14.5336 215.748C12.8649 213.038 8.97114 211.953 6.18989 214.122C3.40864 215.748 2.29614 219.544 4.52114 222.255L6.74614 226.05L2.85239 228.219C0.0711399 229.845 -1.04136 233.641 1.18364 236.352C1.73989 238.52 3.96489 239.063 5.63364 239.063C6.74614 239.063 7.85864 238.52 8.97114 237.978L12.8649 235.809L15.0899 239.605C16.2024 241.231 18.4274 242.316 20.0961 242.316C21.2086 242.316 22.3211 241.773 23.4336 241.231C26.2149 239.605 27.3274 235.809 25.1024 233.098L22.8774 229.303L26.7711 227.134C29.5524 225.508 30.6649 221.713 28.4399 219.002C27.3274 216.291 23.4336 215.748 20.6524 217.375Z" fill="#C9753D"/>
<path d="M77.9462 233.641C70.7149 233.641 61.2587 232.556 55.1399 230.93C51.8024 230.387 48.4649 232.556 47.9087 235.809C47.3524 239.063 49.5774 242.316 52.9149 242.858C59.0337 243.942 69.0462 245.569 77.9462 245.569C81.2837 245.569 84.0649 242.858 84.0649 239.605C84.0649 236.352 81.2837 233.641 77.9462 233.641Z" fill="#C9753D"/>
<path d="M123.559 213.037C119.665 218.459 115.215 222.797 109.652 226.05C107.984 227.134 105.759 228.219 103.534 229.303C100.196 230.387 99.0837 234.183 100.196 237.436C101.309 239.605 103.534 241.231 105.759 241.231C106.315 241.231 107.427 241.231 107.984 240.689C110.765 239.605 112.99 238.52 115.215 236.894C121.89 232.556 127.452 227.677 132.459 221.17C134.684 218.459 134.127 214.664 131.346 213.037C129.677 209.784 125.784 210.327 123.559 213.037Z" fill="#C9753D"/>
<path d="M168.059 174C161.94 174 158.602 175.627 155.265 176.711C147.477 179.964 140.802 187.013 139.134 189.181C136.909 191.892 137.465 195.687 139.69 197.856C140.802 198.941 142.471 199.483 143.584 199.483C145.252 199.483 146.921 198.941 148.034 197.314C150.815 194.061 155.265 190.266 159.715 188.097C163.052 187.013 164.165 186.47 168.059 185.928C171.396 185.928 174.177 183.217 174.177 179.964C174.177 176.711 171.396 174 168.059 174Z" fill="#C9753D"/>
<path d="M190.865 183.217C189.752 186.47 190.865 189.723 194.202 191.35C200.321 194.061 209.221 198.398 215.896 203.278C217.009 203.82 218.121 204.362 219.234 204.362C221.459 204.362 223.127 203.278 224.24 201.652C225.909 198.941 225.352 195.145 222.571 193.519C214.784 188.639 205.884 183.759 198.652 181.048C195.871 178.88 192.534 180.506 190.865 183.217Z" fill="#C9753D"/>
<path d="M190.778 52.6488C190.778 23.5695 167.326 0 138.387 0C109.448 0 86 23.5695 86 52.6488C86 94.3115 138.387 155.959 138.387 155.959C138.387 155.959 190.778 94.0971 190.778 52.6488ZM112.551 49.5051C112.551 35.1609 124.122 23.5358 138.391 23.5358C152.66 23.5358 164.231 35.1609 164.231 49.5051C164.231 63.8494 152.66 75.4744 138.391 75.4744C124.122 75.4744 112.551 63.8494 112.551 49.5051Z" fill="#C9753D"/>
<path d="M138.387 62.2734C145.403 62.2734 151.091 56.5568 151.091 49.5052C151.091 42.4535 145.403 36.737 138.387 36.737C131.37 36.737 125.682 42.4535 125.682 49.5052C125.682 56.5568 131.37 62.2734 138.387 62.2734Z" fill="#C9753D"/>
</svg>
