<svg width="225" height="224" viewBox="0 0 225 224" fill="none" xmlns="http://www.w3.org/2000/svg">
<path d="M170.808 58.7203C170.808 26.2875 144.52 0 112.083 0C79.6451 0 53.3623 26.2875 53.3623 58.7203C53.3623 105.187 112.083 173.944 112.083 173.944C112.083 173.944 170.808 104.948 170.808 58.7203ZM83.1232 55.2141C83.1232 39.2156 96.0936 26.25 112.087 26.25C128.081 26.25 141.051 39.2156 141.051 55.2141C141.051 71.2125 128.081 84.1781 112.087 84.1781C96.0936 84.1781 83.1232 71.2125 83.1232 55.2141Z" fill="#C9753D"/>
<path d="M112.083 69.4547C119.948 69.4547 126.324 63.079 126.324 55.2141C126.324 47.3492 119.948 40.9734 112.083 40.9734C104.218 40.9734 97.8423 47.3492 97.8423 55.2141C97.8423 63.079 104.218 69.4547 112.083 69.4547Z" fill="#C9753D"/>
<path d="M145.284 153.52C140.498 160.434 136.008 166.462 132.267 171.3C169.373 173.527 193.692 181.537 202.739 187.5C192.141 194.489 160.645 204.314 112.092 204.314C63.5391 204.314 32.0437 194.484 21.4453 187.5C30.4922 181.542 54.7922 173.536 91.8609 171.305C88.1109 166.467 83.6156 160.444 78.825 153.53C33.1641 158.025 0 171.534 0 187.495C0 207.136 50.1891 223.064 112.092 223.064C174 223.064 224.18 207.141 224.18 187.495C224.189 171.525 190.988 158.011 145.284 153.52Z" fill="#C9753D"/>
</svg>
